<?xml version="1.0" encoding="utf-8"?>
<!-- Generator: Adobe Illustrator 26.4.1, SVG Export Plug-In . SVG Version: 6.00 Build 0)  -->
<!DOCTYPE svg PUBLIC "-//W3C//DTD SVG 1.1//EN" "http://www.w3.org/Graphics/SVG/1.1/DTD/svg11.dtd" [
	<!ENTITY ns_extend "http://ns.adobe.com/Extensibility/1.0/">
	<!ENTITY ns_ai "http://ns.adobe.com/AdobeIllustrator/10.0/">
	<!ENTITY ns_graphs "http://ns.adobe.com/Graphs/1.0/">
	<!ENTITY ns_vars "http://ns.adobe.com/Variables/1.0/">
	<!ENTITY ns_imrep "http://ns.adobe.com/ImageReplacement/1.0/">
	<!ENTITY ns_sfw "http://ns.adobe.com/SaveForWeb/1.0/">
	<!ENTITY ns_custom "http://ns.adobe.com/GenericCustomNamespace/1.0/">
	<!ENTITY ns_adobe_xpath "http://ns.adobe.com/XPath/1.0/">
]>
<svg version="1.1" id="图层_1" xmlns:x="&ns_extend;" xmlns:i="&ns_ai;" xmlns:graph="&ns_graphs;"
	 xmlns="http://www.w3.org/2000/svg" xmlns:xlink="http://www.w3.org/1999/xlink" x="0px" y="0px" viewBox="0 0 524 140"
	 style="enable-background:new 0 0 524 140;" xml:space="preserve">
<metadata>
	<sfw  xmlns="&ns_sfw;">
		<slices></slices>
		<sliceSourceBounds  bottomLeftOrigin="true" height="92.8" width="432.6" x="42.1" y="-125.2"></sliceSourceBounds>
		<optimizationSettings>
			<targetSettings  fileFormat="JPEGFormat" targetSettingsID="0">
				
					<JPEGFormat  blurAmount="0" embedICCProfile="false" matteColor="#FFFFFF" noMatteColor="false" optimized="true" progressive="true" quality="60">
					</JPEGFormat>
			</targetSettings>
		</optimizationSettings>
	</sfw>
</metadata>
<path style="fill:#D7000F;" d="M65,45.9H42.1L45,32.4h60.8l-2.9,13.5H81.1l-12.4,59.4H52.5L65,45.9z"/>
<path style="fill:#D7000F;" d="M113.2,51.1c14.5,0,24.6,7.1,24.6,22.3c0,18.6-11.5,33.3-30.7,33.3c-14.7,0-24.2-7.7-24.2-22.8
	C82.9,66.1,94.4,51.1,113.2,51.1z M107.8,95.7c10.8,0,15.5-13.3,15.5-22.1c0-7-3.1-11.6-10.6-11.6C102.1,62,97.4,75,97.4,83.9
	C97.4,90.1,101,95.7,107.8,95.7z"/>
<path style="fill:#D7000F;" d="M149.8,52.5h13.9l-1.6,7.3h0.2c4.7-5.8,10.9-8.8,18.5-8.8c10,0,15.4,5,15.4,14.2
	c0,2.1-1.1,7.2-1.5,9.1l-6.5,30.9h-14.5l6.4-30.9c0.4-1.5,0.9-5,0.9-6.4c0-3.2-3.6-5.4-6.9-5.4c-8.8,0-13.3,7.3-14.8,14.7l-5.9,28.1
	h-14.5L149.8,52.5z"/>
<path style="fill:#D7000F;" d="M250.4,102.5c-3.6,16-11.6,22.8-29.1,22.8c-10.7,0-22.5-4.6-22.5-17.2h14.5c-0.2,5.3,4.8,7.6,9.5,7.6
	c9.2,0,11.8-8.1,14.7-18.4l-0.2-0.2c-3.8,5-8.6,7.4-14.5,7.4c-12.5,0-20.3-8.6-20.3-21.5c0-15.4,9.7-31.8,26.6-31.8
	c7.2,0,13.2,2.6,16.1,9.5h0.2l1.6-8.1h13.9L250.4,102.5z M216.9,81.9c0,6.2,3.1,11.6,9.8,11.6c10.4,0,15.4-11.1,15.4-20.1
	c0-6.6-3.4-11.4-10.4-11.4C222,62,216.9,73.4,216.9,81.9z"/>
<path style="fill:#231815;" d="M331.1,106h-15.9l-1.8-52h-0.2l-22.6,52h-16.1l-5-72.8h16l1,53.4h0.2l23.1-53.4h15.3l1.8,53.2h0.2
	l22.2-53.2h16L331.1,106z"/>
<path style="fill:#231815;" d="M373.2,83.1c-0.1,1.3-0.1,2.2-0.1,3.1c0,6.1,3.8,10.3,11.6,10.3c5.8,0,8.7-3.9,10.8-7.2H410
	c-4.6,11.8-12.1,18.2-27.3,18.2c-14.1,0-23.5-8.1-23.5-23.1c0-16.8,11.1-32.5,29.1-32.5c14.7,0,24.6,7.8,24.6,23.1
	c0,2.9-0.3,5.7-0.8,8.3H373.2z M398.9,73.9c0-5.4-1.3-11.2-9.8-11.2c-8.2,0-12.2,5.3-14.4,11.2H398.9z"/>
<path style="fill:#231815;" d="M430.8,33.1h14.5l-5.4,25.7h0.2c4.5-4.9,8.7-7,15.6-7c13.4,0,19,10.2,19,22.4
	c0,16.3-9.4,33.2-27.3,33.2c-7.2,0-14-2.3-16.5-9.7h-0.2l-1.7,8.3h-13.4L430.8,33.1z M434.2,85.4c0,6.4,3.9,11.1,10.5,11.1
	c10.9,0,15.5-13,15.5-22c0-6.6-2.9-11.7-10.3-11.7C438.6,62.7,434.2,76,434.2,85.4z"/>
</svg>
